<?xml version="1.0" standalone="no"?>
<!DOCTYPE svg PUBLIC "-//W3C//DTD SVG 20010904//EN"
 "http://www.w3.org/TR/2001/REC-SVG-20010904/DTD/svg10.dtd">
<svg version="1.0" xmlns="http://www.w3.org/2000/svg"
 width="500.000000pt" height="500.000000pt" viewBox="0 0 500.000000 500.000000"
 preserveAspectRatio="xMidYMid meet">

<g transform="translate(0.000000,500.000000) scale(0.100000,-0.100000)"
fill="#000000" stroke="none">
<path d="M2660 2673 c-22 -59 -178 -488 -185 -510 -3 -7 -9 -13 -14 -13 -5 0
-11 6 -13 13 -3 6 -45 121 -93 255 l-88 243 -17 -54 c-45 -143 -152 -268 -290
-335 -94 -46 -169 -62 -297 -62 l-83 0 0 -135 0 -135 -49 0 c-35 0 -51 4 -55
16 -3 9 -6 69 -6 135 l0 119 -45 0 -45 0 0 -180 0 -180 145 0 144 0 3 133 3
132 80 8 c187 18 344 96 455 227 23 27 46 50 50 50 4 0 26 -53 49 -117 23 -65
58 -158 76 -208 19 -49 42 -114 52 -142 10 -29 21 -53 24 -53 4 0 19 35 34 78
31 88 113 314 187 512 l50 135 -18 58 c-10 32 -21 60 -25 63 -4 2 -17 -22 -29
-53z"/>
</g>
</svg>
